<?xml version="1.0" encoding="utf-8"?>
<!-- Generator: Adobe Illustrator 16.0.0, SVG Export Plug-In . SVG Version: 6.00 Build 0)  -->
<!DOCTYPE svg PUBLIC "-//W3C//DTD SVG 1.1//EN" "http://www.w3.org/Graphics/SVG/1.1/DTD/svg11.dtd">
<svg version="1.1" id="Camada_1" xmlns="http://www.w3.org/2000/svg" xmlns:xlink="http://www.w3.org/1999/xlink" x="0px" y="0px"
	 width="20px" height="20px" viewBox="0 0 20 20" enable-background="new 0 0 20 20" xml:space="preserve">
<g>
	<path fill="#FFFFFF" d="M15.332,2.333H4.668c-0.736,0-1.335,0.599-1.335,1.335v10.664c0,0.736,0.599,1.335,1.335,1.335h10.664
		c0.736,0,1.335-0.599,1.335-1.335V3.668C16.667,2.932,16.068,2.333,15.332,2.333L15.332,2.333z M14.668,3.668v1.999h-1.334
		c-0.401,0-0.668,0.267-0.668,0.667v1.331h2.002v2.002h-2.002v4.665h-1.999V9.667H9.333V7.665h1.334V5.998
		c0-1.266,1.064-2.33,2.334-2.33H14.668z M14.668,3.668"/>
</g>
</svg>
