<?xml version="1.0" encoding="utf-8"?>
<!-- Generator: Adobe Illustrator 16.0.0, SVG Export Plug-In . SVG Version: 6.00 Build 0)  -->
<!DOCTYPE svg PUBLIC "-//W3C//DTD SVG 1.1//EN" "http://www.w3.org/Graphics/SVG/1.1/DTD/svg11.dtd">
<svg version="1.1" id="Camada_1" xmlns="http://www.w3.org/2000/svg" xmlns:xlink="http://www.w3.org/1999/xlink" x="0px" y="0px"
	 width="40px" height="35px" viewBox="0 0 40 35" enable-background="new 0 0 40 35" xml:space="preserve">
<g>
	<g>
		<path fill="#FFFFFF" d="M16.614,29.425c0,1.183-0.962,2.144-2.144,2.144c-1.182,0-2.143-0.963-2.143-2.144
			c0-1.182,0.961-2.144,2.143-2.144C15.652,27.281,16.614,28.243,16.614,29.425L16.614,29.425z M27.766,27.28
			c-1.182,0-2.143,0.963-2.143,2.145c0,1.181,0.961,2.144,2.143,2.144c1.183,0,2.144-0.963,2.144-2.144
			C29.909,28.243,28.948,27.28,27.766,27.28L27.766,27.28z M32.716,8.762c-0.146-0.175-0.36-0.276-0.59-0.277L9.266,8.461
			L7.748,2.293C7.663,1.95,7.355,1.709,7.003,1.709h-3.53c-0.423,0-0.767,0.344-0.767,0.768c0,0.424,0.344,0.767,0.767,0.767h2.928
			l4.37,17.752l0.656,3.091c0.266,1.255,1.388,2.163,2.67,2.163h14.783c0.424,0,0.768-0.343,0.768-0.768
			c0-0.424-0.344-0.767-0.768-0.767H14.096c-0.561,0-1.052-0.398-1.168-0.946l-0.462-2.177h17.542c0.37,0,0.688-0.265,0.755-0.63
			L32.88,9.391C32.922,9.167,32.86,8.936,32.716,8.762L32.716,8.762z M32.716,8.762"/>
	</g>
</g>
</svg>
