<?xml version="1.0" encoding="utf-8"?>
<!-- Generator: Adobe Illustrator 16.0.0, SVG Export Plug-In . SVG Version: 6.00 Build 0)  -->
<!DOCTYPE svg PUBLIC "-//W3C//DTD SVG 1.1//EN" "http://www.w3.org/Graphics/SVG/1.1/DTD/svg11.dtd">
<svg version="1.1" id="Camada_1" xmlns="http://www.w3.org/2000/svg" xmlns:xlink="http://www.w3.org/1999/xlink" x="0px" y="0px"
	 width="20px" height="20px" viewBox="0 0 20 20" enable-background="new 0 0 20 20" xml:space="preserve">
<g>
	<path d="M10,4.712c-2.56,0-4.646,2.017-4.646,4.493c0,1.607,0.653,2.565,1.133,3.269c0.296,0.433,0.464,0.69,0.464,0.952
		c0,0.581,0.311,1.13,0.866,1.542c0.015,0.347,0.065,1.19,0.065,1.19c0.009,0.241,0.136,0.729,0.96,1.005
		c0.097,0.143,0.224,0.27,0.38,0.375c0.097,0.064,0.21,0.101,0.329,0.101h0.898c0.117,0,0.232-0.036,0.327-0.101
		c0.156-0.105,0.282-0.232,0.383-0.375c0.83-0.275,0.951-0.774,0.959-1.005c0,0,0.051-0.845,0.065-1.19
		c0.555-0.411,0.864-0.96,0.864-1.542c0-0.26,0.17-0.52,0.468-0.957c0.476-0.698,1.129-1.655,1.129-3.264
		C14.645,6.729,12.56,4.712,10,4.712z M12.542,11.812c-0.345,0.504-0.666,0.979-0.666,1.614c0,0.277-0.254,0.501-0.441,0.631h-2.87
		c-0.187-0.13-0.439-0.354-0.439-0.631c0-0.635-0.324-1.11-0.672-1.619c-0.433-0.635-0.924-1.357-0.924-2.6
		c0-1.828,1.557-3.316,3.47-3.317c1.915,0,3.473,1.488,3.473,3.317C13.473,10.451,12.979,11.172,12.542,11.812z"/>
	<path d="M10,3.831c0.162,0,0.294-0.13,0.294-0.293V2.656c0-0.162-0.132-0.293-0.294-0.293c-0.162,0-0.293,0.132-0.293,0.293v0.88
		C9.707,3.701,9.838,3.831,10,3.831z"/>
	<path d="M6.879,4.454C6.934,4.545,7.033,4.6,7.134,4.6c0.049,0,0.1-0.012,0.146-0.039c0.141-0.082,0.189-0.26,0.108-0.402
		l-0.44-0.763C6.867,3.255,6.687,3.207,6.546,3.288C6.407,3.369,6.358,3.55,6.439,3.69L6.879,4.454z"/>
	<path d="M4.419,5.71C4.28,5.629,4.1,5.676,4.018,5.816c-0.08,0.142-0.031,0.32,0.108,0.402L4.89,6.658
		c0.045,0.027,0.096,0.04,0.145,0.04c0.103,0,0.2-0.053,0.255-0.147c0.082-0.14,0.034-0.319-0.106-0.4L4.419,5.71z"/>
	<path d="M4.561,9.27c0-0.162-0.13-0.293-0.293-0.293h-0.88c-0.162,0-0.293,0.131-0.293,0.293c0,0.162,0.131,0.293,0.293,0.293h0.88
		C4.432,9.563,4.561,9.431,4.561,9.27z"/>
	<path d="M4.89,11.881l-0.763,0.442c-0.141,0.082-0.19,0.26-0.109,0.401c0.055,0.095,0.153,0.146,0.254,0.146
		c0.051,0,0.102-0.014,0.147-0.039l0.763-0.439c0.138-0.083,0.188-0.262,0.108-0.403C5.209,11.848,5.032,11.8,4.89,11.881z"/>
	<path d="M15.109,11.881c-0.139-0.081-0.318-0.03-0.4,0.108c-0.08,0.14-0.031,0.32,0.107,0.403l0.764,0.439
		c0.046,0.027,0.098,0.039,0.146,0.039c0.099,0,0.199-0.052,0.253-0.146c0.083-0.142,0.034-0.32-0.106-0.401L15.109,11.881z"/>
	<path d="M16.613,8.977h-0.882c-0.162,0-0.294,0.131-0.294,0.293c0,0.162,0.132,0.293,0.294,0.293h0.882
		c0.161,0,0.293-0.132,0.293-0.293C16.906,9.107,16.774,8.977,16.613,8.977z"/>
	<path d="M14.966,6.699c0.049,0,0.098-0.014,0.143-0.04l0.763-0.439c0.141-0.082,0.191-0.261,0.108-0.401
		c-0.081-0.141-0.259-0.189-0.401-0.107L14.815,6.15c-0.138,0.083-0.189,0.262-0.108,0.401C14.765,6.645,14.862,6.699,14.966,6.699z
		"/>
	<path d="M12.864,4.598c0.101,0,0.201-0.053,0.255-0.146l0.439-0.764c0.083-0.139,0.032-0.321-0.108-0.401
		c-0.138-0.082-0.318-0.033-0.399,0.108l-0.442,0.763c-0.079,0.14-0.03,0.32,0.111,0.4C12.766,4.586,12.817,4.598,12.864,4.598z"/>
	<path d="M9.607,11.043c0.034,0.262,0.161,0.333,0.393,0.333c0.231,0,0.357-0.071,0.394-0.333l0.277-2.093
		c0.018-0.143,0.036-0.287,0.036-0.42V7.49c0-0.456-0.26-0.688-0.707-0.688S9.292,7.034,9.292,7.49v1.04
		c0,0.133,0.018,0.278,0.038,0.42L9.607,11.043z"/>
	<path d="M10,11.958c-0.403,0-0.735,0.331-0.735,0.732c0,0.404,0.332,0.735,0.735,0.735c0.404,0,0.735-0.331,0.735-0.735
		C10.735,12.289,10.404,11.958,10,11.958z"/>
</g>
</svg>
