<?xml version="1.0" encoding="utf-8"?>
<!-- Generator: Adobe Illustrator 16.0.0, SVG Export Plug-In . SVG Version: 6.00 Build 0)  -->
<!DOCTYPE svg PUBLIC "-//W3C//DTD SVG 1.1//EN" "http://www.w3.org/Graphics/SVG/1.1/DTD/svg11.dtd">
<svg version="1.1" id="Camada_1" xmlns="http://www.w3.org/2000/svg" xmlns:xlink="http://www.w3.org/1999/xlink" x="0px" y="0px"
	 width="20px" height="20px" viewBox="0 0 20 20" enable-background="new 0 0 20 20" xml:space="preserve">
<g>
	<path d="M15.134,10.208c0,2.824-2.311,5.135-5.134,5.135c-2.824,0-5.133-2.311-5.133-5.135c0-2.823,2.309-5.133,5.133-5.133
		c0.514,0,0.965,0.063,1.413,0.191l1.024-1.028c-0.77-0.258-1.602-0.45-2.437-0.45c-3.529,0-6.419,2.89-6.419,6.419
		c0,3.531,2.89,6.42,6.419,6.42c3.53,0,6.419-2.889,6.419-6.42H15.134z"/>
	<polygon points="7.368,8.987 6.471,9.887 9.358,12.775 15.776,6.357 14.878,5.458 9.358,10.98 	"/>
</g>
</svg>
