<?xml version="1.0" encoding="utf-8"?>
<!-- Generator: Adobe Illustrator 16.0.0, SVG Export Plug-In . SVG Version: 6.00 Build 0)  -->
<!DOCTYPE svg PUBLIC "-//W3C//DTD SVG 1.1//EN" "http://www.w3.org/Graphics/SVG/1.1/DTD/svg11.dtd">
<svg version="1.1" id="Camada_1" xmlns="http://www.w3.org/2000/svg" xmlns:xlink="http://www.w3.org/1999/xlink" x="0px" y="0px"
	 width="20px" height="20px" viewBox="0 0 20 20" enable-background="new 0 0 20 20" xml:space="preserve">
<g>
	<path d="M10,3.244c-3.67,0-6.677,3.042-6.677,6.756c0,3.715,3.007,6.756,6.677,6.756c3.671,0,6.678-3.042,6.678-6.756
		C16.678,6.285,13.671,3.244,10,3.244L10,3.244z M12.337,7.298c0.535,0,1.002,0.472,1.002,1.013s-0.467,1.012-1.002,1.012
		c-0.534,0-1.002-0.471-1.002-1.012C11.335,7.771,11.803,7.298,12.337,7.298L12.337,7.298z M7.662,7.298
		c0.536,0,1.003,0.472,1.003,1.013S8.198,9.322,7.662,9.322c-0.533,0-0.999-0.471-0.999-1.012C6.663,7.771,7.128,7.298,7.662,7.298
		L7.662,7.298z M10,14.053c-1.734,0-3.204-1.146-3.739-2.701h7.478C13.205,12.906,11.734,14.053,10,14.053L10,14.053z"/>
</g>
</svg>
