<?xml version="1.0" encoding="utf-8"?>
<!-- Generator: Adobe Illustrator 16.0.0, SVG Export Plug-In . SVG Version: 6.00 Build 0)  -->
<!DOCTYPE svg PUBLIC "-//W3C//DTD SVG 1.1//EN" "http://www.w3.org/Graphics/SVG/1.1/DTD/svg11.dtd">
<svg version="1.1" id="Camada_1" xmlns="http://www.w3.org/2000/svg" xmlns:xlink="http://www.w3.org/1999/xlink" x="0px" y="0px"
	 width="15px" height="15px" viewBox="0 0 15 15" enable-background="new 0 0 15 15" xml:space="preserve">
<g>
	<path fill="#B11730" d="M7.646,1.13c-2.773,0-5.029,2.256-5.029,5.029c0,2.773,2.256,5.029,5.029,5.029
		c2.773,0,5.029-2.256,5.029-5.029C12.675,3.386,10.419,1.13,7.646,1.13z M7.646,10.326c-2.298,0-4.167-1.869-4.167-4.167
		s1.869-4.167,4.167-4.167s4.167,1.869,4.167,4.167S9.943,10.326,7.646,10.326z"/>
	<path fill="#B11730" d="M9.592,4.213c-0.169-0.168-0.441-0.168-0.61,0L7.646,5.55L6.309,4.213c-0.168-0.168-0.441-0.168-0.61,0
		c-0.168,0.168-0.168,0.441,0,0.61l1.337,1.336L5.699,7.496c-0.168,0.168-0.168,0.441,0,0.609c0.084,0.084,0.195,0.127,0.305,0.127
		S6.225,8.19,6.309,8.105L7.646,6.77l1.336,1.336c0.085,0.084,0.194,0.127,0.306,0.127c0.11,0,0.22-0.042,0.305-0.127
		c0.168-0.168,0.168-0.441,0-0.609L8.255,6.16l1.337-1.337C9.76,4.654,9.76,4.382,9.592,4.213z"/>
</g>
</svg>
