<?xml version="1.0" encoding="utf-8"?>
<!-- Generator: Adobe Illustrator 16.0.0, SVG Export Plug-In . SVG Version: 6.00 Build 0)  -->
<!DOCTYPE svg PUBLIC "-//W3C//DTD SVG 1.1//EN" "http://www.w3.org/Graphics/SVG/1.1/DTD/svg11.dtd">
<svg version="1.1" id="Camada_1" xmlns="http://www.w3.org/2000/svg" xmlns:xlink="http://www.w3.org/1999/xlink" x="0px" y="0px"
	 width="20px" height="20px" viewBox="0 0 20 20" enable-background="new 0 0 20 20" xml:space="preserve">
<g>
	<path fill="#754D26" d="M15.931,3.127c-0.306-0.306-0.803-0.306-1.108,0l-4.266,4.266L9.788,6.624
		c-0.257-0.256-0.671-0.256-0.928,0L8.398,7.086C7.278,7.354,6.159,7.62,5.04,7.887L3.251,8.313
		c-0.15,0.036-0.272,0.144-0.325,0.289c-0.053,0.145-0.03,0.306,0.062,0.43c1.979,2.691,4.348,5.059,7.038,7.038
		c0.08,0.059,0.176,0.089,0.272,0.089c0.053,0,0.107-0.009,0.158-0.027c0.145-0.054,0.253-0.176,0.289-0.324l0.533-2.241
		c0.231-0.969,0.462-1.938,0.693-2.906l0.463-0.463c0.255-0.256,0.255-0.672,0-0.928l-0.77-0.768l4.266-4.266
		C16.237,3.929,16.237,3.434,15.931,3.127L15.931,3.127z M10.014,14.912c-0.373-0.287-0.739-0.584-1.099-0.886l0.605-1.705
		l-1.195,1.195c-0.431-0.38-0.85-0.773-1.259-1.176l0.601-0.949L6.714,11.99c-0.375-0.381-0.74-0.771-1.095-1.169l1.2-1.201
		l-1.715,0.609C4.775,9.842,4.456,9.447,4.146,9.045L8.235,8.07l2.753,2.753L10.014,14.912z M10.014,14.912"/>
</g>
</svg>
