<?xml version="1.0" encoding="utf-8"?>
<!-- Generator: Adobe Illustrator 16.0.0, SVG Export Plug-In . SVG Version: 6.00 Build 0)  -->
<!DOCTYPE svg PUBLIC "-//W3C//DTD SVG 1.1//EN" "http://www.w3.org/Graphics/SVG/1.1/DTD/svg11.dtd">
<svg version="1.1" id="Camada_1" xmlns="http://www.w3.org/2000/svg" xmlns:xlink="http://www.w3.org/1999/xlink" x="0px" y="0px"
	 width="30px" height="30px" viewBox="0 0 30 30" enable-background="new 0 0 30 30" xml:space="preserve">
<path fill="#519777" d="M14.994,0.167c-8.183,0-14.828,6.644-14.828,14.829c0,8.193,6.645,14.838,14.828,14.838
	c8.194,0,14.84-6.646,14.84-14.838C29.834,6.801,23.188,0.167,14.994,0.167L14.994,0.167z M18.834,14.996h-2.435v8.897h-3.333
	v-8.897h-2.227v-3.061l2.227-0.009l-0.009-1.801c0-2.499,0.679-4.028,3.632-4.028h2.452v3.069h-1.539
	c-1.14,0-1.203,0.433-1.203,1.229v1.531h2.761L18.834,14.996z M18.834,14.996"/>
</svg>
