<?xml version="1.0" encoding="utf-8"?>
<!-- Generator: Adobe Illustrator 16.0.0, SVG Export Plug-In . SVG Version: 6.00 Build 0)  -->
<!DOCTYPE svg PUBLIC "-//W3C//DTD SVG 1.1//EN" "http://www.w3.org/Graphics/SVG/1.1/DTD/svg11.dtd">
<svg version="1.1" id="Camada_1" xmlns="http://www.w3.org/2000/svg" xmlns:xlink="http://www.w3.org/1999/xlink" x="0px" y="0px"
	 width="20px" height="30px" viewBox="0 0 20 30" enable-background="new 0 0 20 30" xml:space="preserve">
<path fill="#AEADAE" d="M4.541,15.263l9.514,9.514c0.096,0.096,0.219,0.143,0.344,0.143c0.123,0,0.248-0.047,0.344-0.143
	l0.914-0.914c0.092-0.092,0.143-0.215,0.143-0.344s-0.051-0.252-0.143-0.342L7.4,14.919l8.256-8.257
	c0.092-0.091,0.143-0.214,0.143-0.343c0-0.129-0.051-0.252-0.143-0.343l-0.914-0.915c-0.189-0.189-0.498-0.189-0.688,0l-9.514,9.514
	C4.351,14.765,4.351,15.074,4.541,15.263z"/>
</svg>
