<?xml version="1.0" encoding="utf-8"?>
<!-- Generator: Adobe Illustrator 16.0.0, SVG Export Plug-In . SVG Version: 6.00 Build 0)  -->
<!DOCTYPE svg PUBLIC "-//W3C//DTD SVG 1.1//EN" "http://www.w3.org/Graphics/SVG/1.1/DTD/svg11.dtd">
<svg version="1.1" id="Camada_1" xmlns="http://www.w3.org/2000/svg" xmlns:xlink="http://www.w3.org/1999/xlink" x="0px" y="0px"
	 width="20px" height="30px" viewBox="0 0 20 30" enable-background="new 0 0 20 30" xml:space="preserve">
<path fill="#AEADAE" d="M15.656,14.576L6.143,5.062c-0.189-0.189-0.498-0.189-0.688,0L4.541,5.977
	C4.449,6.067,4.398,6.191,4.398,6.32c0,0.128,0.051,0.252,0.143,0.343l8.256,8.257l-8.256,8.258
	c-0.092,0.09-0.143,0.213-0.143,0.342s0.051,0.252,0.143,0.344l0.914,0.914c0.096,0.096,0.221,0.143,0.344,0.143
	c0.125,0,0.248-0.047,0.344-0.143l9.514-9.514C15.846,15.074,15.846,14.765,15.656,14.576z"/>
</svg>
