<?xml version="1.0" encoding="utf-8"?>
<!-- Generator: Adobe Illustrator 16.0.0, SVG Export Plug-In . SVG Version: 6.00 Build 0)  -->
<!DOCTYPE svg PUBLIC "-//W3C//DTD SVG 1.1//EN" "http://www.w3.org/Graphics/SVG/1.1/DTD/svg11.dtd">
<svg version="1.1" id="Camada_1" xmlns="http://www.w3.org/2000/svg" xmlns:xlink="http://www.w3.org/1999/xlink" x="0px" y="0px"
	 width="24px" height="24px" viewBox="0 0 24 24" enable-background="new 0 0 24 24" xml:space="preserve">
<g>
	<path d="M8.799,13.602V16h6.402v-4H8.799V13.602z M9.6,12.801h4.8v0.801H9.6V12.801z M9.6,14.398h4.8v0.801H9.6V14.398z"/>
	<path d="M15.201,6.398V4H8.799v4h6.402V6.398z"/>
	<path d="M16.799,6.398h-0.801v2.403h-8V6.398H7.202C6.4,6.398,5.6,7.199,5.6,8v4c0,0.801,0.801,1.602,1.602,1.602h0.796V11.2h8
		v2.401h0.801c0.801,0,1.602-0.801,1.602-1.602V8C18.4,7.199,17.6,6.398,16.799,6.398L16.799,6.398z"/>
</g>
</svg>
