<?xml version="1.0" encoding="UTF-8" standalone="no"?>
<!-- Creator: CorelDRAW X7 -->

<svg
   xmlns:dc="http://purl.org/dc/elements/1.1/"
   xmlns:cc="http://creativecommons.org/ns#"
   xmlns:rdf="http://www.w3.org/1999/02/22-rdf-syntax-ns#"
   xmlns:svg="http://www.w3.org/2000/svg"
   xmlns="http://www.w3.org/2000/svg"
   xmlns:sodipodi="http://sodipodi.sourceforge.net/DTD/sodipodi-0.dtd"
   xmlns:inkscape="http://www.inkscape.org/namespaces/inkscape"
   xml:space="preserve"
   width="632.41669"
   height="114.645"
   version="1.1"
   style="clip-rule:evenodd;fill-rule:evenodd;image-rendering:optimizeQuality;shape-rendering:geometricPrecision;text-rendering:geometricPrecision"
   viewBox="0 0 1014.9999 183.43201"
   id="svg2"
   inkscape:version="0.91 r"
   sodipodi:docname="logotype-jus.svg"><metadata
     id="metadata22"><rdf:RDF><cc:Work
         rdf:about=""><dc:format>image/svg+xml</dc:format><dc:type
           rdf:resource="http://purl.org/dc/dcmitype/StillImage" /><dc:title></dc:title></cc:Work></rdf:RDF></metadata><sodipodi:namedview
     pagecolor="#ffffff"
     bordercolor="#666666"
     borderopacity="1"
     objecttolerance="10"
     gridtolerance="10"
     guidetolerance="10"
     inkscape:pageopacity="0"
     inkscape:pageshadow="2"
     inkscape:window-width="1366"
     inkscape:window-height="713"
     id="namedview20"
     showgrid="false"
     fit-margin-top="0"
     fit-margin-left="0"
     fit-margin-right="0"
     fit-margin-bottom="0"
     inkscape:zoom="1.1160365"
     inkscape:cx="329.04401"
     inkscape:cy="23.752554"
     inkscape:window-x="-2"
     inkscape:window-y="-3"
     inkscape:window-maximized="1"
     inkscape:current-layer="svg2" /><defs
     id="defs4"><style
       type="text/css"
       id="style6"><![CDATA[
    .fil0 {fill:#0B8F56}
    .fil1 {fill:#494952}
   ]]></style></defs><path
     class="fil0"
     d="m 275,139.71512 -27,0 0,-17 24,0 c 6,0 11,-1 14,-3 4,-2 6,-5 7,-9 1,-4 1,-9 1,-14.999996 l 0,-53 21,0 0,57 c 0,5.999996 0,10.999996 -1,14.999996 -1,4 -2,6 -3,8 -1,2 -3,5 -5,7 -2,3 -5,4 -7,6 -3,1 -5,1 -7,2 -1,0 -3,1 -5,1 -1,0 -4,0 -7,0 -3,0 -5,1 -5,1 z m 58,-39 0,-57.999996 21,0 0,57.999996 c 0,2 0,3 0,5 0,2 1,4 1,7 1,2 2,4 3,6 2,2 4,4 7,5 3,1 6,1 11,1 5,0 10,-1 13,-3 3,-1 5,-4 6,-7 2,-4 2,-8 2,-14 l 0,-57.999996 20,0 0,57.999996 c 0,3 0,5 0,8 0,2 0,5 -1,7 0,4 -3,9 -7,15 -5,7 -16,10 -34,10 -17,0 -28,-3 -33,-9 -4,-5 -6,-9 -7,-11 0,-3 -1,-4 -1,-5 0,-2 -1,-3 -1,-5 0,-1 0,-2 0,-3 0,-1 0,-3 0,-4 l 0,-3 z m 133,-57.999996 53,0 0,17 -50,0 c -11,0 -16,4 -16,13 0,3 1,6 4,8 2,1 5,2 9,2 l 27,0 c 5,0 9,1 13,1 4,1 8,3 12,7 4,3 6,9.999996 6,19.999996 0,2 0,5 -1,7 0,2 -1,5 -2,7 -2,3 -4,6 -6,8 -3,3 -7,4 -11,5 -4,1 -8,2 -14,2 l -54,0 0,-18 51,0 c 5,0 8,-1 11,-2 3,-2 4,-4 4,-9 l 0,-2 c 0,-2 -1,-4 -2,-6 -1,-1 -3,-2 -5,-2 -2,-0.999996 -4,-0.999996 -7,-0.999996 l -24,0 c -10,0 -18,-2 -24,-6 -6,-5 -8,-12 -8,-22 0,-5 0,-10 2,-14 2,-4 4,-7 7,-9 3,-2 7,-4 10,-5 4,-1 9,-1 15,-1 z"
     id="path11"
     inkscape:connector-curvature="0"
     style="fill:#0b8f56" /><path
     class="fil1"
     d="m 595,139.71512 -21,0 0,-79.999996 -31,0 0,-17 83,0 0,17 -31,0 z m 41,-39 0,-57.999996 20,0 0,57.999996 0,5 c 0,2 1,4 1,7 l 3,6 c 2,2 4,4 7,5 3,1 6,1 11,1 5,0 10,-1 13,-3 3,-1 5,-4 6,-7 2,-4 2,-8 2,-14 l 0,-57.999996 20,0 0,57.999996 0,8 0,7 c -1,4 -4,9 -8,15 -5,7 -16,10 -33,10 -18,0 -29,-3 -34,-9 -4,-5 -6,-9 -7,-11 0,-3 -1,-4 -1,-5 l 0,-5 0,-3 0,-4 z m 145,39 -21,0 0,-79.999996 -31,0 0,-17 84,0 0,17 -32,0 z m 59,-62.999996 c -1,4 -2,9 -2,14 0,5 1,10.999996 3,17.999996 2,7 5,11 10,13 6,2 10,3 14,3 3,0 6,-1 10,-2 7,-2 12,-8 14,-17 1,-5 2,-9.999996 2,-14.999996 0,-5 0,-9 -1,-12 -1,-4 -2,-6 -2,-7 l -2,-4 c -1,-2 -3,-3 -4,-5 -2,-2 -4,-3 -6,-4 -3,0 -4,-1 -6,-1 l -5,0 c -4,0 -7,0 -10,1 -7,3 -12,8 -15,18 z m -21,-7 c 2,-7 5,-13 9,-16 3,-3 6,-6 9,-7 3,-2 6,-3 10,-4 3,-1 6,-2 8,-2 l 9,0 c 7,0 12,0 16,1 3,1 6,2 7,2 l 6,3 c 3,1 5,3 7,5 5,5 8,11 10,18 2,7 3,14 3,21 0,7 -1,14.999996 -3,21.999996 -2,7 -5,13 -10,17 -5,5 -10,8 -17,9 -6,2 -12,3 -18,3 -6,0 -12,-1 -18,-2 -2,-1 -3,-1 -5,-2 -1,0 -3,-1 -6,-3 -2,-1 -4,-3 -7,-5 -2,-2 -4,-5 -6,-8 -1,-3 -3,-7 -5,-12 -1,-5 -2,-10.999996 -2,-18.999996 0,-8 1,-15 3,-21 z m 128,69.999996 -20,0 0,-96.999996 50,0 7,0 c 3,0 6,1 9,2 4,0 7,2 9,5 3,3 5,6 7,10 1,4 2,8 2,12 0,4 -1,9 -2,12 -2,4 -4,7 -7,10 -3,2 -6,4 -11,5 l 24,40.999996 -23,0 -21,-38 -24,0 z m 25,-79.999996 -25,0 0,25 25,0 c 4,0 7,-1 9,-1 3,-1 5,-2 7,-4 1,-1 2,-4 2,-8 0,-5 -1,-8 -5,-10 -3,-1 -7,-2 -13,-2 z"
     id="path13"
     inkscape:connector-curvature="0"
     style="fill:#494952"
     sodipodi:nodetypes="cccccccccccccsccssccsccccccsccsccccccccccccccsscsccsccsccssccccccsscccssssccsccccccscccccscccsccccccccsccscsscs" /><g
     id="_307723493440"
     transform="translate(0,-0.28487598)"><path
       style="fill:#494952"
       inkscape:connector-curvature="0"
       id="path16"
       d="m 37,0 132,0 c 11,0 21,5 28,12 l -14,12 c -3,-4 -8,-6 -14,-6 L 37,18 C 26,18 18,26 18,37 l 0,86 c 0,10 8,19 19,19 l 34,0 13,18 -47,0 C 17,160 0,143 0,123 L 0,37 C 0,17 17,0 37,0 Z m 89,142 43,0 c 11,0 19,-9 19,-19 l 0,-64 18,-24 c 0,0 0,1 0,2 l 0,86 c 0,20 -17,37 -37,37 l -56,0 13,-18 z m -59,24 72,0 c 5,0 9,4 9,9 l 0,0 c 0,5 -4,9 -9,9 l -72,0 c -5,0 -9,-4 -9,-9 l 0,0 c 0,-5 4,-9 9,-9 z"
       class="fil1" /><polygon
       style="fill:#0b8f56"
       id="polygon18"
       points="98,165 215,8 101,109 65,60 24,60 "
       class="fil0" /></g></svg>