<?xml version="1.0" encoding="utf-8"?>
<!-- Generator: Adobe Illustrator 16.0.0, SVG Export Plug-In . SVG Version: 6.00 Build 0)  -->
<!DOCTYPE svg PUBLIC "-//W3C//DTD SVG 1.1//EN" "http://www.w3.org/Graphics/SVG/1.1/DTD/svg11.dtd">
<svg version="1.1" id="Capa_1" xmlns="http://www.w3.org/2000/svg" xmlns:xlink="http://www.w3.org/1999/xlink" x="0px" y="0px"
	 width="25px" height="25px" viewBox="5 5 25 25" enable-background="new 5 5 25 25" xml:space="preserve">
<g>
	<path d="M17.5,11.148V8.766l-3.176,3.176l3.176,3.177v-2.382c2.628,0,4.764,2.135,4.764,4.764c0,0.803-0.197,1.565-0.556,2.223
		l1.16,1.16c0.618-0.978,0.983-2.135,0.983-3.382C23.852,13.991,21.01,11.148,17.5,11.148z M17.5,22.264
		c-2.628,0-4.764-2.136-4.764-4.764c0-0.802,0.197-1.564,0.555-2.223l-1.16-1.159c-0.619,0.976-0.984,2.135-0.984,3.381
		c0,3.51,2.841,6.352,6.352,6.353v2.382l3.176-3.176L17.5,19.883V22.264z"/>
</g>
</svg>
