<?xml version="1.0" encoding="UTF-8" standalone="no"?>
<!-- Generator: Adobe Illustrator 16.0.0, SVG Export Plug-In . SVG Version: 6.00 Build 0)  -->

<svg
   xmlns:dc="http://purl.org/dc/elements/1.1/"
   xmlns:cc="http://creativecommons.org/ns#"
   xmlns:rdf="http://www.w3.org/1999/02/22-rdf-syntax-ns#"
   xmlns:svg="http://www.w3.org/2000/svg"
   xmlns="http://www.w3.org/2000/svg"
   xmlns:sodipodi="http://sodipodi.sourceforge.net/DTD/sodipodi-0.dtd"
   xmlns:inkscape="http://www.inkscape.org/namespaces/inkscape"
   version="1.1"
   id="Camada_1"
   x="0px"
   y="0px"
   width="20px"
   height="20px"
   viewBox="0 0 20 20"
   enable-background="new 0 0 20 20"
   xml:space="preserve"
   inkscape:version="0.91 r"
   sodipodi:docname="search.svg"><metadata
     id="metadata11"><rdf:RDF><cc:Work
         rdf:about=""><dc:format>image/svg+xml</dc:format><dc:type
           rdf:resource="http://purl.org/dc/dcmitype/StillImage" /></cc:Work></rdf:RDF></metadata><defs
     id="defs9" /><sodipodi:namedview
     pagecolor="#ffffff"
     bordercolor="#666666"
     borderopacity="1"
     objecttolerance="10"
     gridtolerance="10"
     guidetolerance="10"
     inkscape:pageopacity="0"
     inkscape:pageshadow="2"
     inkscape:window-width="778"
     inkscape:window-height="480"
     id="namedview7"
     showgrid="false"
     inkscape:zoom="11.8"
     inkscape:cx="10"
     inkscape:cy="10"
     inkscape:window-x="0"
     inkscape:window-y="0"
     inkscape:window-maximized="0"
     inkscape:current-layer="Camada_1" /><g
     id="g3"
     style="fill:#b3b3b3"><path
       d="M18.188,16.942l-3.627-3.627c0.874-1.262,1.312-2.667,1.312-4.218c0-1.008-0.196-1.972-0.587-2.892   c-0.392-0.919-0.92-1.713-1.587-2.379C13.034,3.16,12.24,2.631,11.32,2.24c-0.919-0.391-1.883-0.587-2.891-0.587   c-1.008,0-1.972,0.196-2.892,0.587C4.618,2.631,3.824,3.16,3.158,3.826c-0.666,0.666-1.195,1.46-1.586,2.379   c-0.391,0.92-0.587,1.884-0.587,2.892s0.196,1.972,0.587,2.891c0.391,0.92,0.92,1.714,1.586,2.379   c0.666,0.667,1.46,1.195,2.379,1.587c0.92,0.391,1.884,0.587,2.892,0.587c1.55,0,2.958-0.438,4.218-1.312l3.627,3.616   c0.253,0.267,0.571,0.401,0.952,0.401c0.365,0,0.683-0.135,0.951-0.401c0.268-0.269,0.401-0.586,0.401-0.951   C18.579,17.521,18.45,17.202,18.188,16.942L18.188,16.942z M11.776,12.444c-0.929,0.926-2.043,1.39-3.347,1.39   s-2.419-0.464-3.347-1.39c-0.927-0.929-1.39-2.044-1.39-3.347c0-1.304,0.463-2.42,1.39-3.347C6.01,4.823,7.125,4.36,8.429,4.36   s2.418,0.463,3.347,1.39c0.926,0.927,1.39,2.042,1.39,3.347C13.166,10.4,12.702,11.516,11.776,12.444L11.776,12.444z    M11.776,12.444"
       id="path5"
       style="fill:#b3b3b3" /></g></svg>