<?xml version="1.0" encoding="iso-8859-1"?>
<!-- Generator: Adobe Illustrator 20.1.0, SVG Export Plug-In . SVG Version: 6.00 Build 0)  -->
<svg xmlns="http://www.w3.org/2000/svg" xmlns:xlink="http://www.w3.org/1999/xlink" version="1.1" id="&#1057;&#1083;&#1086;&#1081;_1" x="0px" y="0px" viewBox="0 0 64 64" style="enable-background:new 0 0 64 64;" xml:space="preserve">
<linearGradient id="SVGID_1__49447" gradientUnits="userSpaceOnUse" x1="41" y1="47.875" x2="41" y2="54.125" spreadMethod="reflect">
	<stop offset="0" style="stop-color:#6DC7FF"/>
	<stop offset="1" style="stop-color:#E6ABFF"/>
</linearGradient>
<rect x="26" y="50" style="fill:url(#SVGID_1__49447);" width="30" height="2"/>
<linearGradient id="SVGID_2__49447" gradientUnits="userSpaceOnUse" x1="41" y1="9" x2="41" y2="54.7071" spreadMethod="reflect">
	<stop offset="0" style="stop-color:#1A6DFF"/>
	<stop offset="1" style="stop-color:#C822FF"/>
</linearGradient>
<path style="fill:url(#SVGID_2__49447);" d="M55,48H27c-1.654,0-3,1.346-3,3v3h34v-3C58,49.346,56.654,48,55,48z M56,52H26v-1  c0-0.551,0.448-1,1-1h28c0.552,0,1,0.449,1,1V52z"/>
<linearGradient id="SVGID_3__49447" gradientUnits="userSpaceOnUse" x1="29" y1="9" x2="29" y2="54.7071" spreadMethod="reflect">
	<stop offset="0" style="stop-color:#1A6DFF"/>
	<stop offset="1" style="stop-color:#C822FF"/>
</linearGradient>
<path style="fill:url(#SVGID_3__49447);" d="M30,35h2v3c-1.103,0-2,0.897-2,2v2c0,1.103,0.897,2,2,2h18c1.103,0,2-0.897,2-2v-2  c0-1.103-0.897-2-2-2V22c1.103,0,2-0.897,2-2v-2c0-1.103-0.897-2-2-2H32c-1.103,0-2,0.897-2,2v2c0,1.103,0.897,2,2,2v3h-2  c-1.103,0-2,0.897-2,2H9c-1.654,0-3,1.346-3,3s1.346,3,3,3h19C28,34.103,28.897,35,30,35z M50,42H32v-2h18V42z M32,18h18v2H32V18z   M48,22v2H38v2h10v2h-6v2h6v8H34V22H48z M30,27h2v6h-2V27z M9,31c-0.552,0-1-0.449-1-1s0.448-1,1-1h19v2H9z"/>
<linearGradient id="SVGID_4__49447" gradientUnits="userSpaceOnUse" x1="10" y1="9" x2="10" y2="54.7071" spreadMethod="reflect">
	<stop offset="0" style="stop-color:#1A6DFF"/>
	<stop offset="1" style="stop-color:#C822FF"/>
</linearGradient>
<rect x="9" y="21" style="fill:url(#SVGID_4__49447);" width="2" height="4"/>
<linearGradient id="SVGID_5__49447" gradientUnits="userSpaceOnUse" x1="14" y1="9" x2="14" y2="54.7071" spreadMethod="reflect">
	<stop offset="0" style="stop-color:#1A6DFF"/>
	<stop offset="1" style="stop-color:#C822FF"/>
</linearGradient>
<rect x="13" y="17" style="fill:url(#SVGID_5__49447);" width="2" height="8"/>
<linearGradient id="SVGID_6__49447" gradientUnits="userSpaceOnUse" x1="18" y1="9" x2="18" y2="54.7071" spreadMethod="reflect">
	<stop offset="0" style="stop-color:#1A6DFF"/>
	<stop offset="1" style="stop-color:#C822FF"/>
</linearGradient>
<rect x="17" y="15" style="fill:url(#SVGID_6__49447);" width="2" height="10"/>
<linearGradient id="SVGID_7__49447" gradientUnits="userSpaceOnUse" x1="22" y1="9" x2="22" y2="54.7071" spreadMethod="reflect">
	<stop offset="0" style="stop-color:#1A6DFF"/>
	<stop offset="1" style="stop-color:#C822FF"/>
</linearGradient>
<rect x="21" y="10" style="fill:url(#SVGID_7__49447);" width="2" height="15"/>
</svg>
