<?xml version="1.0"?>
<svg xmlns="http://www.w3.org/2000/svg" viewBox="0 0 50 50">
    <path style="line-height:normal;text-indent:0;text-align:start;text-decoration-line:none;text-decoration-style:solid;text-decoration-color:#000;text-transform:none;block-progression:tb;isolation:auto;mix-blend-mode:normal" d="M 33 2 C 32.617644 2 32.301736 2.1655178 31.970703 2.2949219 A 1.0001 1.0001 0 0 0 31.4375 2.4355469 L 21.429688 8.4414062 A 1.0001 1.0001 0 0 0 21.066406 8.8242188 C 20.451288 9.3722872 20 10.113354 20 11 C 20 12.64497 21.35503 14 23 14 C 23.242432 14 23.45728 13.928751 23.667969 13.845703 L 25.835938 17.416016 L 4.203125 29.427734 A 1.0001 1.0001 0 0 0 3.8320312 29.789062 C 2.7756612 30.50639 2 31.628357 2 33 C 2 35.197334 3.8026661 37 6 37 C 6.6072932 37 7.128878 36.747112 7.6445312 36.503906 A 1.0001 1.0001 0 0 0 8.2050781 36.337891 L 28.955078 22.554688 L 31.417969 26.609375 C 31.166282 27.019158 31 27.480901 31 28 C 31 29.64497 32.35503 31 34 31 C 34.388666 31 34.711296 30.82767 35.048828 30.693359 A 1.0001 1.0001 0 0 0 35.582031 30.552734 L 45.419922 24.632812 C 46.350874 24.129354 47 23.137697 47 22 C 47 20.35503 45.64497 19 44 19 C 43.628958 19 43.320438 19.155726 43 19.283203 L 35.404297 6.7734375 C 35.774051 6.2767351 36 5.6645504 36 5 C 36 3.3550302 34.64497 2 33 2 z M 33 4 C 33.56503 4 34 4.4349698 34 5 C 34 5.3843027 33.787798 5.7005056 33.46875 5.8730469 A 1.0001 1.0001 0 0 0 33.429688 5.8964844 L 24.369141 11.345703 L 24.410156 11.408203 L 23.933594 11.697266 A 1.0001 1.0001 0 0 0 23.53125 11.841797 C 23.366778 11.945057 23.191512 12 23 12 C 22.43497 12 22 11.56503 22 11 C 22 10.63576 22.18702 10.334242 22.476562 10.154297 A 1.0001 1.0001 0 0 0 22.837891 8.84375 L 23.298828 9.6523438 L 32.373047 4.2089844 A 1.0001 1.0001 0 0 0 32.478516 4.1542969 C 32.643132 4.0533678 32.813917 4 33 4 z M 33.828125 8.0292969 L 41.154297 20.09375 L 32.859375 25.130859 L 30.138672 20.652344 A 1.0001 1.0001 0 0 0 30.123047 20.626953 L 28.083984 17.267578 L 25.533203 13.066406 L 33.828125 8.0292969 z M 26.875 19.128906 L 27.916016 20.84375 L 7.1582031 34.632812 A 1.0001 1.0001 0 0 0 7.0996094 34.667969 C 6.7798747 34.879099 6.4091451 35 6 35 C 4.8833339 35 4 34.116666 4 33 C 4 32.20334 4.4608045 31.53691 5.1308594 31.210938 A 1.0001 1.0001 0 0 0 5.3007812 31.105469 L 26.875 19.128906 z M 44 21 C 44.56503 21 45 21.43497 45 22 C 45 22.384303 44.787798 22.700506 44.46875 22.873047 A 1.0001 1.0001 0 0 0 44.429688 22.896484 L 35.369141 28.345703 L 35.894531 29.134766 A 1.0001 1.0001 0 0 0 34.53125 28.841797 C 34.366778 28.945057 34.191512 29 34 29 C 33.43497 29 33 28.56503 33 28 C 33 27.63576 33.18702 27.334242 33.476562 27.154297 A 1.0001 1.0001 0 0 0 33.710938 26.955078 L 34.275391 26.611328 L 34.298828 26.652344 L 43.373047 21.208984 A 1.0001 1.0001 0 0 0 43.478516 21.154297 C 43.643132 21.053371 43.813917 21 44 21 z M 27 42 C 25.35503 42 24 43.35503 24 45 L 24 48 L 48 48 L 48 45 C 48 43.35503 46.64497 42 45 42 L 27 42 z M 27 44 L 45 44 C 45.56503 44 46 44.43497 46 45 L 46 46 L 26 46 L 26 45 C 26 44.43497 26.43497 44 27 44 z" font-weight="400" font-family="sans-serif" white-space="normal" overflow="visible"/>
</svg>
