<svg id="Layer_1" height="512" viewBox="0 0 512 512" width="512" xmlns="http://www.w3.org/2000/svg" data-name="Layer 1"><path d="m123.5 476.323v-440.646a13.833 13.833 0 0 1 13.955-13.677h-30a13.833 13.833 0 0 0 -13.955 13.677v440.646a13.833 13.833 0 0 0 13.955 13.677h30a13.833 13.833 0 0 1 -13.955-13.677z" fill="#d4e1f4"/><path d="m107.455 502h218.483a26.159 26.159 0 0 0 19.088-8.278l78.607-84.4a25.451 25.451 0 0 0 6.867-17.4v-356.245a25.846 25.846 0 0 0 -25.955-25.677h-297.09a25.846 25.846 0 0 0 -25.955 25.677v440.646a25.846 25.846 0 0 0 25.955 25.677zm232.994-20.97-1.258-73.3 71.936-2.589zm-246.949-445.353a13.833 13.833 0 0 1 13.955-13.677h297.09a13.833 13.833 0 0 1 13.955 13.677v356.243c0 .317-.022.632-.044.947l-83.241 3a8.032 8.032 0 0 0 -6.174 2.749 7.877 7.877 0 0 0 -1.9 6.114l1.458 85.013a14.182 14.182 0 0 1 -2.658.262h-218.486a13.833 13.833 0 0 1 -13.955-13.682z" fill="#0635c9"/><g fill="#1ae5be"><path d="m123.132 108.084h43.845a8.047 8.047 0 0 0 8.063-8.011v-10.342a6 6 0 1 0 -12 0v6.353h-35.971v-36.262h25.961a6 6 0 0 0 0-12h-29.9a8.046 8.046 0 0 0 -8.063 8.011v44.24a8.046 8.046 0 0 0 8.065 8.011z"/><path d="m123.069 223.38h43.971a8.009 8.009 0 0 0 8-8v-44.261a8.009 8.009 0 0 0 -8-8h-43.971a8.009 8.009 0 0 0 -8 8v44.261a8.009 8.009 0 0 0 8 8zm4-48.261h35.971v36.261h-35.971z"/><path d="m123.069 338.677h43.971a8.009 8.009 0 0 0 8-8v-44.262a8.009 8.009 0 0 0 -8-8h-43.971a8.009 8.009 0 0 0 -8 8v44.262a8.009 8.009 0 0 0 8 8zm4-48.262h35.971v36.262h-35.971z"/><path d="m175.04 445.973v-44.261a8.009 8.009 0 0 0 -8-8h-43.971a8.009 8.009 0 0 0 -8 8v44.261a8.009 8.009 0 0 0 8 8h43.971a8.009 8.009 0 0 0 8-8zm-12-4h-35.971v-36.261h35.971z"/><path d="m367.014 55.841h-154.342a6 6 0 0 0 0 12h154.342a6 6 0 1 0 0-12z"/><path d="m367.014 89.043h-154.342a6 6 0 0 0 0 12h154.342a6 6 0 0 0 0-12z"/><path d="m367.014 170.974h-154.342a6 6 0 1 0 0 12h154.342a6 6 0 0 0 0-12z"/><path d="m367.014 204.176h-154.342a6 6 0 1 0 0 12h154.342a6 6 0 0 0 0-12z"/><path d="m367.014 286.108h-154.342a6 6 0 1 0 0 12h154.342a6 6 0 0 0 0-12z"/><path d="m367.014 319.31h-154.342a6 6 0 1 0 0 12h154.342a6 6 0 0 0 0-12z"/><path d="m212.672 413.241h84.5a6 6 0 0 0 0-12h-84.5a6 6 0 0 0 0 12z"/><path d="m212.672 446.443h83.587a6 6 0 0 0 0-12h-83.587a6 6 0 0 0 0 12z"/><path d="m142.662 68.573a6 6 0 0 0 -6.78 9.9l13.852 9.485.49.22a7.8 7.8 0 0 0 3.2.686 7.926 7.926 0 0 0 6.78-3.8l28.071-38.4a6 6 0 1 0 -9.688-7.081l-26.106 35.717z"/></g></svg>