<svg id="Layer_1" height="512" viewBox="0 0 512 512" width="512" xmlns="http://www.w3.org/2000/svg" data-name="Layer 1"><path d="m400.164 339.858-.111-.416h-13.844a45.492 45.492 0 0 0 -45.389 45.492v39.409h20v-39.409a45.516 45.516 0 0 1 39.344-45.076z" fill="#d4e1f4"/><path d="m401.373 276.857a34.167 34.167 0 0 1 24.037-32.613 34.118 34.118 0 1 0 0 65.225 34.165 34.165 0 0 1 -24.037-32.612z" fill="#d4e1f4"/><path d="m82.552 98.316a34.168 34.168 0 0 1 24.038-32.616 34.118 34.118 0 1 0 0 65.225 34.168 34.168 0 0 1 -24.038-32.609z" fill="#d4e1f4"/><path d="m81.343 161.316-.11-.416h-13.844a45.493 45.493 0 0 0 -45.389 45.492v39.408h20v-39.408a45.518 45.518 0 0 1 39.343-45.076z" fill="#d4e1f4"/><g fill="#0635c9"><path d="m16 257.8h161.18a6 6 0 0 0 6-6v-45.408a57.508 57.508 0 0 0 -57.1-57.491h-58.691a57.506 57.506 0 0 0 -57.389 57.491v45.408a6 6 0 0 0 6 6zm81.107-73.607 6.669 35.694-7.3 7.931-7.016-7.818zm2.423-23.293-2.206 8.289h-1.468l-2.206-8.289zm-77.53 45.492a45.493 45.493 0 0 1 45.389-45.492h13.844l3.756 14.111a8.138 8.138 0 0 0 1.232 2.7l-9.135 42.778a6 6 0 0 0 1.405 5.262l13.469 15a6 6 0 0 0 4.428 1.991h.036a6 6 0 0 0 4.415-1.937l13.8-15a6 6 0 0 0 1.484-5.165l-8.309-44.475a7.9 7.9 0 0 0 .352-1.061l3.78-14.2h13.844a45.492 45.492 0 0 1 45.389 45.492v39.404h-149.179z"/><path d="m153.3 189.488h-20.688a6 6 0 0 0 0 12h20.688a6 6 0 0 0 0-12z"/><path d="m96.59 144.433a46.118 46.118 0 1 0 -46.038-46.117 46.129 46.129 0 0 0 46.038 46.117zm0-80.235a34.118 34.118 0 1 1 -34.038 34.118 34.115 34.115 0 0 1 34.038-34.116z"/><path d="m444.9 327.442h-58.691a57.506 57.506 0 0 0 -57.389 57.492v45.409a6 6 0 0 0 6 6h161.18a6 6 0 0 0 6-6v-45.409a57.508 57.508 0 0 0 -57.1-57.492zm-28.973 35.3 6.668 35.691-7.3 7.931-7.017-7.814zm2.423-23.3-2.205 8.289h-1.469l-2.206-8.289zm71.65 84.9h-149.18v-39.408a45.492 45.492 0 0 1 45.389-45.492h13.844l3.756 14.111a8.159 8.159 0 0 0 1.233 2.7l-9.135 42.778a6 6 0 0 0 1.4 5.262l13.47 15a6 6 0 0 0 4.427 1.991h.037a6 6 0 0 0 4.415-1.938l13.8-15a5.992 5.992 0 0 0 1.483-5.164l-8.309-44.473a7.886 7.886 0 0 0 .354-1.063l3.779-14.2h13.844a45.492 45.492 0 0 1 45.393 45.488z"/><path d="m472.121 368.029h-20.689a6 6 0 0 0 0 12h20.689a6 6 0 0 0 0-12z"/><path d="m415.41 322.974a46.118 46.118 0 1 0 -46.037-46.117 46.13 46.13 0 0 0 46.037 46.117zm0-80.235a34.118 34.118 0 1 1 -34.037 34.118 34.118 34.118 0 0 1 34.037-34.118z"/></g><path d="m275.549 476.484a214.284 214.284 0 0 0 73.069-18.2 6 6 0 0 0 -4.9-10.952 203.317 203.317 0 0 1 -209.532-26.618 205.294 205.294 0 0 1 -74.517-125.514l16.378 10.381a6 6 0 1 0 6.424-10.136l-30.541-19.352a6 6 0 0 0 -8.3 1.886l-19.214 30.721a6 6 0 1 0 10.173 6.363l13.267-21.21a5.984 5.984 0 0 0 -.148 2.645 217.288 217.288 0 0 0 79 133.6 214.781 214.781 0 0 0 133.974 46.902q7.411 0 14.867-.516zm-224.944-187.024.753.477a5.934 5.934 0 0 0 -1.729 1.083z" fill="#1ae5be"/><path d="m147.8 71.568a203.3 203.3 0 0 1 96.869-24.568h.45a203.594 203.594 0 0 1 129.7 47.185 206.244 206.244 0 0 1 69.691 116.347l-18.379-13.563a6 6 0 0 0 -7.125 9.655l29.094 21.476a6 6 0 0 0 8.412-1.294l21.338-29.282a6 6 0 0 0 -9.7-7.068l-12.112 16.623a218.289 218.289 0 0 0 -73.532-122.1 215.618 215.618 0 0 0 -137.36-49.979h-.476a215.344 215.344 0 0 0 -102.6 26.026 6 6 0 0 0 5.73 10.542z" fill="#1ae5be"/></svg>