<?xml version="1.0" encoding="UTF-8" standalone="no"?>
<!-- Generator: Adobe Illustrator 16.0.0, SVG Export Plug-In . SVG Version: 6.00 Build 0)  -->

<svg
   xmlns:dc="http://purl.org/dc/elements/1.1/"
   xmlns:cc="http://creativecommons.org/ns#"
   xmlns:rdf="http://www.w3.org/1999/02/22-rdf-syntax-ns#"
   xmlns:svg="http://www.w3.org/2000/svg"
   xmlns="http://www.w3.org/2000/svg"
   xmlns:sodipodi="http://sodipodi.sourceforge.net/DTD/sodipodi-0.dtd"
   xmlns:inkscape="http://www.inkscape.org/namespaces/inkscape"
   version="1.1"
   id="Camada_1"
   x="0px"
   y="0px"
   width="632.41498"
   height="113.44"
   viewBox="0 0 632.41498 113.44"
   enable-background="new 0 0 767 115"
   xml:space="preserve"
   inkscape:version="0.91 r13725"
   sodipodi:docname="logotype-jus-negativo.svg"><metadata
     id="metadata14966"><rdf:RDF><cc:Work
         rdf:about=""><dc:format>image/svg+xml</dc:format><dc:type
           rdf:resource="http://purl.org/dc/dcmitype/StillImage" /><dc:title></dc:title></cc:Work></rdf:RDF></metadata><defs
     id="defs14964" /><sodipodi:namedview
     pagecolor="#ffffff"
     bordercolor="#666666"
     borderopacity="1"
     objecttolerance="10"
     gridtolerance="10"
     guidetolerance="10"
     inkscape:pageopacity="0"
     inkscape:pageshadow="2"
     inkscape:window-width="1366"
     inkscape:window-height="709"
     id="namedview14962"
     showgrid="false"
     inkscape:zoom="1.1707953"
     inkscape:cx="500.03183"
     inkscape:cy="-18.717578"
     inkscape:window-x="-4"
     inkscape:window-y="0"
     inkscape:window-maximized="1"
     inkscape:current-layer="Camada_1"
     fit-margin-top="0"
     fit-margin-left="0"
     fit-margin-right="0"
     fit-margin-bottom="0" /><path
     style="fill:#0b8f56"
     inkscape:connector-curvature="0"
     id="path14946"
     d="m 171.344,87.407 -16.823,0 0,-10.592 14.954,0 c 3.739,0 6.854,-0.623 8.723,-1.87 2.492,-1.246 3.738,-3.115 4.361,-5.607 0.623,-2.492 0.623,-5.607 0.623,-9.346 l 0,-33.022 13.084,0 0,35.515 c 0,3.738 0,6.854 -0.623,9.346 -0.623,2.492 -1.246,3.738 -1.869,4.985 -0.623,1.246 -1.869,3.115 -3.115,4.361 -1.246,1.869 -3.115,2.492 -4.361,3.738 -1.87,0.623 -3.116,0.623 -4.362,1.246 -0.623,0 -1.869,0.623 -3.115,0.623 -0.623,0 -2.492,0 -4.361,0 -1.869,0 -3.116,0.623 -3.116,0.623 z m 36.138,-24.3 0,-36.137 13.084,0 0,36.138 c 0,1.246 0,1.869 0,3.115 0,1.246 0.623,2.492 0.623,4.361 0.623,1.246 1.246,2.492 1.869,3.738 1.247,1.246 2.493,2.493 4.362,3.116 1.869,0.623 3.738,0.623 6.854,0.623 3.116,0 6.231,-0.623 8.1,-1.869 1.869,-0.624 3.115,-2.493 3.738,-4.362 1.246,-2.492 1.246,-4.984 1.246,-8.723 l 0,-36.137 12.461,0 0,36.138 c 0,1.869 0,3.115 0,4.984 0,1.246 0,3.115 -0.623,4.361 0,2.492 -1.869,5.608 -4.361,9.347 -3.115,4.361 -9.969,6.23 -21.185,6.23 -10.592,0 -17.446,-1.869 -20.561,-5.607 -2.493,-3.115 -3.739,-5.607 -4.362,-6.854 0,-1.869 -0.623,-2.492 -0.623,-3.115 0,-1.246 -0.623,-1.869 -0.623,-3.115 0,-0.623 0,-1.246 0,-1.869 0,-0.623 0,-1.869 0,-2.492 l 0,-1.871 z m 82.869,-36.137 33.023,0 0,10.592 -31.154,0 c -6.854,0 -9.969,2.493 -9.969,8.1 0,1.869 0.623,3.738 2.492,4.985 1.246,0.623 3.115,1.246 5.608,1.246 l 16.823,0 c 3.115,0 5.607,0.623 8.1,0.623 2.492,0.623 4.985,1.869 7.478,4.361 2.492,1.869 3.738,6.23 3.738,12.461 0,1.246 0,3.115 -0.623,4.361 0,1.246 -0.623,3.116 -1.246,4.362 -1.246,1.869 -2.492,3.738 -3.738,4.984 -1.87,1.869 -4.362,2.492 -6.854,3.115 -2.492,0.623 -4.984,1.246 -8.723,1.246 l -33.646,0 0,-11.214 31.777,0 c 3.115,0 4.984,-0.624 6.854,-1.247 1.869,-1.246 2.492,-2.492 2.492,-5.607 l 0,-1.246 c 0,-1.246 -0.623,-2.492 -1.246,-3.738 -0.623,-0.623 -1.869,-1.246 -3.115,-1.246 -1.246,-0.623 -2.492,-0.623 -4.361,-0.623 l -14.954,0 c -6.231,0 -11.215,-1.246 -14.954,-3.738 -3.738,-3.115 -4.984,-7.477 -4.984,-13.708 0,-3.115 0,-6.231 1.246,-8.723 1.246,-2.492 2.492,-4.361 4.362,-5.607 1.869,-1.246 4.361,-2.492 6.23,-3.115 2.49,-0.624 5.605,-0.624 9.344,-0.624 z" /><path
     inkscape:connector-curvature="0"
     style="fill:#ffffff"
     id="path14948"
     d="m 370.727,87.407 -13.084,0 0,-49.845 -19.315,0 0,-10.592 51.715,0 0,10.592 -19.315,0 0,49.845 z m 25.546,-24.3 0,-36.137 12.461,0 0,36.138 0,3.115 c 0,1.246 0.623,2.492 0.623,4.361 l 1.869,3.738 c 1.246,1.246 2.492,2.493 4.361,3.116 1.869,0.623 3.738,0.623 6.854,0.623 3.116,0 6.231,-0.623 8.101,-1.869 1.869,-0.624 3.115,-2.493 3.738,-4.362 1.246,-2.492 1.246,-4.984 1.246,-8.723 l 0,-36.137 12.462,0 0,36.138 0,4.984 0,4.361 c -0.623,2.492 -2.493,5.608 -4.985,9.347 -3.115,4.361 -9.969,6.23 -20.562,6.23 -11.215,0 -18.068,-1.869 -21.184,-5.607 -2.492,-3.115 -3.738,-5.607 -4.361,-6.854 0,-1.869 -0.623,-2.492 -0.623,-3.115 l 0,-3.115 0,-1.869 0,-2.492 z m 90.345,24.3 -13.085,0 0,-49.845 -19.314,0 0,-10.592 52.338,0 0,10.592 -19.938,0 0,49.845 z m 36.761,-39.253 c -0.623,2.493 -1.246,5.608 -1.246,8.723 0,3.115 0.623,6.854 1.869,11.215 1.246,4.361 3.116,6.854 6.231,8.101 3.738,1.246 6.23,1.869 8.723,1.869 1.869,0 3.738,-0.623 6.23,-1.246 4.362,-1.247 7.478,-4.985 8.724,-10.593 0.623,-3.115 1.246,-6.23 1.246,-9.346 0,-3.116 0,-5.607 -0.623,-7.477 -0.623,-2.492 -1.246,-3.738 -1.246,-4.361 l -1.246,-2.492 c -0.623,-1.246 -1.869,-1.869 -2.492,-3.115 -1.247,-1.247 -2.493,-1.87 -3.739,-2.493 -1.869,0 -2.492,-0.623 -3.738,-0.623 l -3.115,0 c -2.492,0 -4.361,0 -6.23,0.623 -4.363,1.869 -7.479,4.984 -9.348,11.215 z m -13.084,-4.362 c 1.246,-4.361 3.115,-8.1 5.607,-9.969 1.869,-1.869 3.738,-3.738 5.607,-4.361 1.869,-1.246 3.738,-1.869 6.231,-2.492 1.869,-0.623 3.738,-1.246 4.984,-1.246 l 5.607,0 c 4.361,0 7.477,0 9.969,0.623 1.87,0.623 3.739,1.246 4.362,1.246 l 3.738,1.869 c 1.869,0.623 3.115,1.869 4.361,3.115 3.115,3.115 4.984,6.854 6.23,11.215 1.246,4.361 1.869,8.723 1.869,13.084 0,4.361 -0.623,9.346 -1.869,13.707 -1.246,4.361 -3.115,8.101 -6.23,10.593 -3.115,3.115 -6.23,4.984 -10.592,5.607 -3.739,1.246 -7.478,1.869 -11.216,1.869 -3.738,0 -7.477,-0.623 -11.215,-1.246 -1.246,-0.623 -1.869,-0.623 -3.116,-1.246 -0.623,0 -1.869,-0.623 -3.738,-1.869 -1.246,-0.623 -2.492,-1.869 -4.361,-3.115 -1.246,-1.246 -2.492,-3.115 -3.738,-4.984 -0.623,-1.87 -1.869,-4.362 -3.115,-7.478 -0.623,-3.115 -1.246,-6.854 -1.246,-11.838 0,-4.984 0.625,-9.345 1.871,-13.084 z m 79.753,43.615 -12.461,0 0,-60.437 31.153,0 4.361,0 c 1.869,0 3.738,0.623 5.607,1.246 2.492,0 4.361,1.246 5.607,3.115 1.869,1.869 3.115,3.738 4.362,6.23 0.623,2.493 1.246,4.985 1.246,7.477 0,2.492 -0.623,5.608 -1.246,7.477 -1.247,2.492 -2.493,4.361 -4.362,6.23 -1.869,1.246 -3.738,2.492 -6.854,3.115 l 14.954,25.546 -14.331,0 -13.082,-23.676 -14.954,0 z m 15.577,-49.845 -15.577,0 0,15.577 15.577,0 c 2.492,0 4.361,-0.623 5.607,-0.623 1.869,-0.623 3.115,-1.246 4.361,-2.493 0.623,-0.623 1.246,-2.492 1.246,-4.984 0,-3.115 -0.623,-4.984 -3.115,-6.231 -1.869,-0.623 -4.361,-1.246 -8.099,-1.246 z"
     sodipodi:nodetypes="ccccccccccccccsccssccsccccccsccscccccccccccccccsscsccsccsccssccccccsscccssssccsccccccscccccscccsccccccccsccsccscs" /><g
     id="g14950"><path
       d="m 23.89,0 81.856,0 c 13.139,0 23.89,10.508 23.89,23.351 l 0,52.599 c 0,12.843 -10.75,23.352 -23.89,23.352 l -33.638,0 c 0.158,-0.629 7.118,-10.136 7.759,-10.915 l 28.016,-0.146 c 6.224,0 11.317,-4.978 11.317,-11.062 l 0,-55.549 c 0,-6.084 -5.093,-11.06 -11.317,-11.06 l -85.25,0 c -6.224,0 -11.316,4.976 -11.316,11.06 l 0,55.55 c 0,6.084 5.092,11.062 11.316,11.062 l 28.27,0 c 0.688,0.673 8.019,11.017 8.019,11.061 l -35.032,0 C 10.75,99.302 0,88.793 0,75.95 L 0,23.351 C 0,10.508 10.75,0 23.89,0 Z"
       id="path14952"
       style="clip-rule:evenodd;fill:#ffffff;fill-rule:evenodd"
       inkscape:connector-curvature="0" /><path
       d="m 119.2,71.123 c 0,7.674 0.631,11.338 -6.73,15.665 C 91.837,72.542 86.887,71.919 64.128,62.902 59.179,60.942 50.325,58.877 52.372,53.886 c 2.843,-6.929 17.045,5.88 21.252,0.62 1.423,-1.78 -0.257,-6.527 -0.633,-8.486 l 9.767,-5.481 c 2.909,4.276 11.285,18.145 15.193,20.506 3.106,1.879 17.46,8.432 21.249,10.078 z"
       id="path14954"
       inkscape:connector-curvature="0"
       style="clip-rule:evenodd;fill:#00a551;fill-rule:evenodd" /><path
       d="m 70.154,30.741 c -3.263,1.971 -27.877,15.02 -26.867,17.781 0.569,1.553 1.11,2.293 3.123,3.047 1.467,0.547 28.13,-15.576 31.609,-17.587 -2.301,-3.807 -4.277,-4.494 -7.865,-3.241 z"
       id="path14956"
       inkscape:connector-curvature="0"
       style="clip-rule:evenodd;fill:#00a551;fill-rule:evenodd" /><path
       d="m 88.122,29.233 3.008,5.201 -30.153,17.789 c -6.963,-3.402 -10.75,-1.215 -9.717,5.352 l -2.083,1.432 -7.326,0.679 3.933,-5.805 42.338,-24.648 z"
       id="path14958"
       style="clip-rule:evenodd;fill:#ffffff;fill-rule:evenodd"
       inkscape:connector-curvature="0" /><path
       d="m 42.252,102.891 46.23,0 c 2.805,0 5.101,2.242 5.101,4.982 l 0,0.583 c 0,2.742 -2.295,4.984 -5.101,4.984 l -46.23,0 c -2.805,0 -5.1,-2.242 -5.1,-4.984 l 0,-0.583 c 0,-2.74 2.295,-4.982 5.1,-4.982 z"
       id="path14960"
       style="clip-rule:evenodd;fill:#ffffff;fill-rule:evenodd"
       inkscape:connector-curvature="0" /></g></svg>