<svg width="50px" height="50px" viewBox="0 0 50 50">
  <path
    d="M25,50 C11.2,50 0,38.8 0,25 C0,11.2 11.2,0 25,0 C38.8,0 50,11.2 50,25 C50,25.8 49.3,26.5 48.5,26.5 C47.7,26.5 47,25.8 47,25 C47,12.9 37.1,3 25,3 C12.9,3 3,12.9 3,25 C3,37.1 12.9,47 25,47 C25.8,47 26.5,47.7 26.5,48.5 C26.5,49.3 25.8,50 25,50 Z"
    fill="#212120"
  />
  <path
    d="M25,45 C14,45 5,36 5,25 C5,24.2 5.7,23.5 6.5,23.5 C7.3,23.5 8,24.2 8,25 C8,34.4 15.6,42 25,42 C34.4,42 42,34.4 42,25 C42,15.6 34.4,8 25,8 C24.2,8 23.5,7.3 23.5,6.5 C23.5,5.7 24.2,5 25,5 C36,5 45,14 45,25 C45,36 36,45 25,45 Z"
    fill="#4FB95C"
  />
</svg>
