<?xml version="1.0" encoding="UTF-8" standalone="no"?>
<!-- Generator: Adobe Illustrator 16.0.0, SVG Export Plug-In . SVG Version: 6.00 Build 0)  -->

<svg
   xmlns:dc="http://purl.org/dc/elements/1.1/"
   xmlns:cc="http://creativecommons.org/ns#"
   xmlns:rdf="http://www.w3.org/1999/02/22-rdf-syntax-ns#"
   xmlns:svg="http://www.w3.org/2000/svg"
   xmlns="http://www.w3.org/2000/svg"
   xmlns:sodipodi="http://sodipodi.sourceforge.net/DTD/sodipodi-0.dtd"
   xmlns:inkscape="http://www.inkscape.org/namespaces/inkscape"
   version="1.1"
   id="Camada_1"
   x="0px"
   y="0px"
   width="30px"
   height="30px"
   viewBox="0 0 30 30"
   enable-background="new 0 0 30 30"
   xml:space="preserve"
   inkscape:version="0.91 r"
   sodipodi:docname="icon-peca-black.svg"><metadata
     id="metadata21"><rdf:RDF><cc:Work
         rdf:about=""><dc:format>image/svg+xml</dc:format><dc:type
           rdf:resource="http://purl.org/dc/dcmitype/StillImage" /><dc:title></dc:title></cc:Work></rdf:RDF></metadata><defs
     id="defs19" /><sodipodi:namedview
     pagecolor="#ffffff"
     bordercolor="#666666"
     borderopacity="1"
     objecttolerance="10"
     gridtolerance="10"
     guidetolerance="10"
     inkscape:pageopacity="0"
     inkscape:pageshadow="2"
     inkscape:window-width="759"
     inkscape:window-height="480"
     id="namedview17"
     showgrid="false"
     inkscape:zoom="7.8666667"
     inkscape:cx="11.477861"
     inkscape:cy="15"
     inkscape:window-x="0"
     inkscape:window-y="0"
     inkscape:window-maximized="0"
     inkscape:current-layer="Camada_1" /><g
     id="g3"
     style="fill:#000000"><path
       fill="#FFFFFF"
       d="M21.01,18.217c0,0.185-0.15,0.335-0.336,0.335H9.326c-0.186,0-0.337-0.15-0.337-0.335v-0.224   c0-0.186,0.151-0.337,0.337-0.337h11.348c0.186,0,0.336,0.151,0.336,0.337V18.217z M21.01,18.217"
       id="path5"
       style="fill:#000000" /><path
       fill="#FFFFFF"
       d="M14.072,8.901c0,0.185-0.151,0.337-0.338,0.337H9.326c-0.186,0-0.337-0.152-0.337-0.337V8.677   c0-0.185,0.151-0.336,0.337-0.336h4.408c0.187,0,0.338,0.151,0.338,0.336V8.901z M14.072,8.901"
       id="path7"
       style="fill:#000000" /><path
       fill="#FFFFFF"
       d="M20.84,21.322c0,0.184-0.15,0.336-0.336,0.336h-4.41c-0.184,0-0.336-0.152-0.336-0.336v-0.225   c0-0.186,0.15-0.336,0.336-0.336h4.41c0.186,0,0.336,0.15,0.336,0.336V21.322z M20.84,21.322"
       id="path9"
       style="fill:#000000" /><path
       fill="#FFFFFF"
       d="M16.41,12.007c0,0.185-0.151,0.336-0.336,0.336H9.326c-0.186,0-0.337-0.15-0.337-0.336v-0.225   c0-0.185,0.151-0.336,0.337-0.336h6.748c0.185,0,0.336,0.151,0.336,0.336V12.007z M16.41,12.007"
       id="path11"
       style="fill:#000000" /><path
       fill="#FFFFFF"
       d="M21.01,15.111c0,0.186-0.15,0.337-0.336,0.337H9.326c-0.186,0-0.337-0.151-0.337-0.337v-0.225   c0-0.185,0.151-0.336,0.337-0.336h11.348c0.186,0,0.336,0.151,0.336,0.336V15.111z M21.01,15.111"
       id="path13"
       style="fill:#000000" /><path
       fill="#FFFFFF"
       d="M23.156,9.557l-5.438-4.472c-0.451-0.371-1.23-0.649-1.813-0.649H7.353c-0.739,0-1.341,0.602-1.341,1.341   v18.404c0,1.384,1.307,1.384,1.338,1.384h15.297c0.74,0,1.342-0.603,1.342-1.342V11.321C23.988,10.705,23.631,9.946,23.156,9.557   L23.156,9.557z M17.346,6.46c0-0.327,0.273-0.076,0.273-0.076l4.309,3.684c0,0,0.275,0.271-0.197,0.271h-4.035   c-0.193,0-0.35-0.157-0.35-0.349V6.46z M22.646,24.569H7.254c-0.054,0-0.249-0.017-0.249-0.288V5.776   c0-0.188,0.159-0.348,0.347-0.348h8.554c0.145,0,0.447,0.076,0.447,0.49V9.99c0,0.739,0.6,1.341,1.342,1.341h5.051   c0.094,0,0.248,0.063,0.248,0.287v12.604C22.994,24.414,22.84,24.569,22.646,24.569L22.646,24.569z M22.646,24.569"
       id="path15"
       style="fill:#000000" /></g></svg>