<?xml version="1.0" encoding="utf-8"?>
<!-- Generator: Adobe Illustrator 16.0.0, SVG Export Plug-In . SVG Version: 6.00 Build 0)  -->
<!DOCTYPE svg PUBLIC "-//W3C//DTD SVG 1.1//EN" "http://www.w3.org/Graphics/SVG/1.1/DTD/svg11.dtd">
<svg version="1.1" id="Camada_1" xmlns="http://www.w3.org/2000/svg" xmlns:xlink="http://www.w3.org/1999/xlink" x="0px" y="0px"
	 width="30px" height="30px" viewBox="0 0 30 30" enable-background="new 0 0 30 30" xml:space="preserve">
<g>
	<g>
		<path fill="#FFFFFF" d="M4.548,25.815c-0.138,0-0.274-0.052-0.378-0.156c-0.209-0.208-0.209-0.547,0-0.757l11.048-11.047
			l-2.053-2.054l-0.312,0.313c-0.209,0.209-0.547,0.209-0.756,0c-0.208-0.208-0.208-0.547,0-0.756l0.313-0.313l-1.312-1.312
			c-0.209-0.208-0.209-0.547,0-0.756l4.499-4.5c0.209-0.209,0.548-0.209,0.756,0l1.313,1.312l0.313-0.312
			c0.209-0.209,0.547-0.209,0.755,0c0.211,0.208,0.211,0.546,0,0.755L18.42,6.546l4.862,4.863l0.313-0.312
			c0.21-0.209,0.548-0.209,0.756,0c0.21,0.208,0.21,0.547,0,0.755l-0.313,0.312l1.313,1.313c0.1,0.101,0.156,0.236,0.156,0.378
			c0,0.142-0.057,0.277-0.156,0.377l-4.499,4.5c-0.211,0.21-0.549,0.21-0.757,0l-1.313-1.312l-0.313,0.312
			c-0.208,0.208-0.546,0.208-0.754,0c-0.21-0.208-0.21-0.549,0-0.757l0.313-0.311l-2.054-2.053L4.925,25.659
			C4.821,25.764,4.685,25.815,4.548,25.815L4.548,25.815z M19.539,16.665l0.934,0.934l3.744-3.743l-0.935-0.934L19.539,16.665z
			 M16.358,13.482l2.424,2.426l3.746-3.744l-4.864-4.862l-3.743,3.744l2.426,2.425c0.001,0.002,0.004,0.004,0.005,0.006
			C16.354,13.479,16.354,13.48,16.358,13.482L16.358,13.482z M12.231,9.355l0.934,0.935l3.743-3.744l-0.933-0.934L12.231,9.355z
			 M25.433,25.147H13.569c-0.296,0-0.534-0.239-0.534-0.534c0-0.297,0.238-0.533,0.534-0.533h11.864
			c0.295,0,0.535,0.236,0.535,0.533C25.968,24.908,25.728,25.147,25.433,25.147L25.433,25.147z M22.763,22.812h-6.524
			c-0.296,0-0.535-0.238-0.535-0.533s0.239-0.536,0.535-0.536h6.524c0.295,0,0.535,0.241,0.535,0.536S23.058,22.812,22.763,22.812
			L22.763,22.812z M22.763,22.812"/>
	</g>
</g>
</svg>
