<?xml version="1.0" encoding="UTF-8" standalone="no"?>
<!-- Generator: Adobe Illustrator 16.0.0, SVG Export Plug-In . SVG Version: 6.00 Build 0)  -->

<svg
   xmlns:dc="http://purl.org/dc/elements/1.1/"
   xmlns:cc="http://creativecommons.org/ns#"
   xmlns:rdf="http://www.w3.org/1999/02/22-rdf-syntax-ns#"
   xmlns:svg="http://www.w3.org/2000/svg"
   xmlns="http://www.w3.org/2000/svg"
   xmlns:sodipodi="http://sodipodi.sourceforge.net/DTD/sodipodi-0.dtd"
   xmlns:inkscape="http://www.inkscape.org/namespaces/inkscape"
   version="1.1"
   id="Camada_1"
   x="0px"
   y="0px"
   width="30px"
   height="30px"
   viewBox="17 22 30 30"
   enable-background="new 17 22 30 30"
   xml:space="preserve"
   inkscape:version="0.91 r"
   sodipodi:docname="icon-questao-black.svg"><metadata
     id="metadata11"><rdf:RDF><cc:Work
         rdf:about=""><dc:format>image/svg+xml</dc:format><dc:type
           rdf:resource="http://purl.org/dc/dcmitype/StillImage" /><dc:title></dc:title></cc:Work></rdf:RDF></metadata><defs
     id="defs9" /><sodipodi:namedview
     pagecolor="#ffffff"
     bordercolor="#666666"
     borderopacity="1"
     objecttolerance="10"
     gridtolerance="10"
     guidetolerance="10"
     inkscape:pageopacity="0"
     inkscape:pageshadow="2"
     inkscape:window-width="1366"
     inkscape:window-height="713"
     id="namedview7"
     showgrid="false"
     inkscape:zoom="7.8666667"
     inkscape:cx="44.307036"
     inkscape:cy="4.8305085"
     inkscape:window-x="-2"
     inkscape:window-y="-3"
     inkscape:window-maximized="1"
     inkscape:current-layer="Camada_1" /><g
     id="g3"
     style="fill:#000000"><path
       fill-rule="evenodd"
       clip-rule="evenodd"
       fill="#FFFFFF"
       d="M34.216,35.542c-0.699,0.779-0.989,1.52-0.969,2.375v0.339h-2.526   l-0.019-0.492c-0.058-0.966,0.266-1.957,1.123-2.98c0.604-0.724,1.101-1.33,1.101-1.978c0-0.664-0.438-1.1-1.387-1.137   c-0.627,0-1.389,0.225-1.878,0.569l-0.649-2.073c0.685-0.398,1.823-0.776,3.171-0.776c2.508,0,3.647,1.385,3.647,2.963   C35.831,33.794,34.938,34.745,34.216,35.542L34.216,35.542z M32.425,25.155c-2.951,0-5.622,1.196-7.554,3.128   c-1.933,1.933-3.129,4.604-3.129,7.553c0,1.984,0.54,3.842,1.481,5.431c0.973,1.646,2.378,3.008,4.057,3.932l0.308,0.171   l-0.009,0.352l-0.103,3.588l4.401-2.713l0.157-0.097l0.178,0.011l0.107,0.005h0.007c0.03,0.002,0.061,0.004,0.096,0.004   c2.951,0,5.622-1.194,7.554-3.127l0,0c1.934-1.932,3.13-4.603,3.13-7.556l0,0c0-2.948-1.194-5.621-3.13-7.554V28.28   C38.047,26.35,35.376,25.155,32.425,25.155L32.425,25.155z M24.053,27.465c2.142-2.143,5.102-3.468,8.372-3.468   c3.268,0,6.225,1.327,8.368,3.469v-0.001c2.143,2.14,3.467,5.102,3.467,8.372h0.003c0,3.27-1.327,6.229-3.47,8.371v0.003   c-2.141,2.142-5.104,3.467-8.371,3.467l-0.096-0.003l-5.155,3.176l-0.911,0.562l0.031-1.066l0.123-4.31   c-1.724-1.017-3.168-2.459-4.187-4.182c-1.043-1.764-1.643-3.82-1.643-6.018C20.584,32.569,21.911,29.608,24.053,27.465   L24.053,27.465z M31.92,42.608c-1.005,0-1.689-0.741-1.689-1.727c0-1.009,0.7-1.729,1.689-1.729c1.025,0,1.69,0.72,1.708,1.729   C33.628,41.866,32.945,42.608,31.92,42.608L31.92,42.608z"
       id="path5"
       style="fill:#000000" /></g></svg>